<?xml version="1.0" encoding="UTF-8"?>
<svg id="Layer_1" data-name="Layer 1" xmlns="http://www.w3.org/2000/svg" viewBox="0 0 656.94 552.66">
  <defs>
    <style>
      .cls-1 {
        fill: none;
        stroke: #000;
        stroke-miterlimit: 10;
        stroke-width: 6px;
      }
    </style>
  </defs>
  <path class="cls-1" d="M450.43,152.72s16.84,6.85,30.26,5.14,18.27-2.43,18.27-2.43c0,0,3.43-1,10.56,0s13.99,0,13.99,0l16.56-4.99s10.56-5.42,14.56-8.85,5.14-2.28,5.14,0-3.43,7.19-3.43,7.19c0,0-9.99,9.08-15.13,10.51s-14.28,3.14-19.41,4.57-3.71,1.71-10.28,5.42-21.7,9.42-27.12,9.42-24.27-4.57-24.27-4.57"/>
  <path class="cls-1" d="M424.73,334.31l-5.42,24.84s-1.71,6.85-1.71,14.56.29,15.13,0,22.27-.57,6.28,2,11.99.39,8.85,1.48,14.56,1.09,4.57-5.76,6.85-10.28,4.28-16.56,3.14-12.85-4.85-12.85-13.42-1.71-17.42,0-23.7,2.19-23.7-.76-29.41-7.48-23.5-7.48-23.5"/>
  <path class="cls-1" d="M368.77,342.87s-4.85,12.28-4.85,17.13-3.43,16.27-3.43,16.27c0,0-1.14,2.86,0,9.14s2.28,14.56,2.28,22.56-1.59,12.56-2.79,18.27-1.21,9.99-8.91,14.56-11.13,2.86-15.13,1.43-8.28-7.99-7.71-16.27-.05-22.56-.05-22.56c0,0-5.09-4.17-5.37-10.08s2-22.18,0-25.04-13.13-23.41-13.13-23.41"/>
  <path class="cls-1" d="M287.4,264.36s10.2,13.13,4.82,29.12-6.82,21.7-11.38,29.69-6.57,15.99-11.99,21.98-9.42,1.43-9.42,13.13v27.41s-3.14,20.84-3.14,27.41-.86,16.84-1.43,24.27-.57,13.99-9.42,13.99-11.13,4-16.56,4.85-17.7.29-23.13-7.42-4.28-9.99-4.28-17.99,1.14-17.7-1.43-23.13-10.56-22.84-10.56-22.84c0,0-6.28-19.97-7.42-24.4s-2.86-17.56-2.86-17.56"/>
  <path class="cls-1" d="M170.34,356.58s-4.57,15.13-4.57,22.84v28.84s2.28,30.83,2.28,37.97-4.85,19.13-5.42,25.12-6.28,10.56-14.28,11.71-28.55,6-34.55-8.28-9.71-30.55-9.71-39.11-4.28-38.83-4.28-38.83c0,0-2.57-19.99-2.57-24.84s2.28-19.13-2.86-26.27-3.71-22.84-3.43-30.26,3.71-48.54,3.71-48.54c0,0,5.42-49.68,5.71-55.67s14.28-40.26,26.84-54.53,33.12-32.26,43.11-35.69,46.54-13.42,60.81-13.13,58.81-4.85,71.09-1.43,52.53,2.86,63.38,4,61.1,8.28,67.95,12.85,4.57,2.86,14.56,9.71,13.13,11.71,13.13,11.71c0,0,11.71,10.56,15.7,17.7s21.41,20.27,21.41,20.27c0,0,4.28,15.13,9.71,20.56s8.57,19.7,11.42,22.84c2.86,3.14,5.42,10.28,5.42,10.28,0,0,6,11.71,7.14,13.7s0,5.42,2.57,7.99,6.28,8.28,6.28,11.42-3.71,13.7-4.28,16.27-6.85,6.28-8.28,11.71-8.85,6.57-11.99,8.28-12.28,6.28-18.56,0-9.14-16.84-16.27-23.7-25.12-22.27-25.12-22.27l-3.14-.57-2.86,14.28s-6.28,37.12-6.28,42.83-6,17.99-10.28,20.84-2.86,3.14-24.55,3.43-32.55,2.57-40.54,2.28-16.56-1.66-21.13.02-37.97,1.97-37.97,1.97c0,0-41.4-5.71-48.82-5.14s-31.69,0-39.97-.29-20.56,2.57-20.56,2.57l-23.41,11.42s-2.86,3.14-6.57,3.14-9.99-9.14-9.99-9.14c0,0-1.14-5.14-7.42-.86s-16.27,7.99-18.56,4.57-3.43-7.99-3.43-7.99"/>
  <path class="cls-1" d="M341.08,290.91s-6.85-5.42-3.71-18.27,7.14-14.56,7.71-28.27-.29-28.55-1.43-36.83-7.36-14.56-7.1-21.7-8.03-18.27,14.53-17.13,35.4,2.57,51.68,6.28,24.55,11.13,31.12,14.85,24,2.91,16.56,22.97-24.99,18.05-30,16.96-15.04.58-30.08,13.95-35.1,21.73-38.44,35.1-10.83,12.09-10.83,12.09Z"/>
  <path class="cls-1" d="M229.06,229.79s7.34-1.1,7.43-26.17,0-39.28,0-39.28c0,0-14.12-23.08-7.43-24.91s8.36-.16,25.07,9.03,28.41,15.04,28.41,24.23,0,23.4-9.19,25.91-24.23,2.51-27.58,10.86-16.71,20.32-16.71,20.32Z"/>
</svg>