<svg viewBox="0 0 800 800" xmlns="http://www.w3.org/2000/svg"><path d="M529.9597293922741,459.46066275200724 L529.8001211672479,372.9881211050178 M308.7219886434141,471.89109300269234 L308.0569598901613,385.2156788287464 M529.9597293922741,459.46066275200724 L518.9292250883998,465.64716625702863 M518.9292250883998,465.64716625702863 L505.02446732935834,471.20102187240457 M505.02446732935834,471.20102187240457 L488.5940304106251,475.9766994863535 M488.5940304106251,475.9766994863535 L470.05542258912624,479.84823061451783 M470.05542258912624,479.84823061451783 L449.88432930386034,482.7129763384044 M449.88432930386034,482.7129763384044 L428.60197398016595,484.49464608083065 M428.60197398016595,484.49464608083065 L406.76081659271983,485.1456506509581 M406.76081659271983,485.1456506509581 L384.9290270540563,484.6485925854616 M384.9290270540563,484.6485925854616 L363.67464603368137,483.01676546108405 M363.67464603368137,483.01676546108405 L343.549492570148,480.2937597157599 M343.549492570148,480.2937597157599 L325.07383617759774,476.5521039096102 M325.07383617759774,476.5521039096102 L308.7219886434141,471.89109300269234 M529.8001211672479,372.9881211050178 L518.7442601164676,379.073638371344 M518.7442601164676,379.073638371344 L504.80754757306653,384.5368662039661 M504.80754757306653,384.5368662039661 L488.33935162094446,389.2346380507225 M488.33935162094446,389.2346380507225 L469.7581442524159,393.04302887136737 M469.7581442524159,393.04302887136737 L449.54071942879455,395.8610630984253 M449.54071942879455,395.8610630984253 L428.2095229223531,397.6136855643719 M428.2095229223531,397.6136855643719 L406.31831480763356,398.25407730709907 M406.31831480763356,398.25407730709907 L384.4366030303364,397.7651223606191 M384.4366030303364,397.7651223606191 L363.1337632323588,396.1598992093747 M363.1337632323588,396.1598992093747 L342.96290486044813,393.4812928198206 M342.96290486044813,393.4812928198206 L324.4455041348797,389.8006573649632 M324.4455041348797,389.8006573649632 L308.0569598901613,385.2156788287464 M350.52890929400326,400.3603036098468 L349.9680501514161,314.85434934904197 M308.7219886434141,471.89109300269234 L294.9097576357484,466.43373928697906 M294.9097576357484,466.43373928697906 L283.9835651213489,460.3231964713649 M283.9835651213489,460.3231964713649 L276.2121998144708,453.7185660645311 M276.2121998144708,453.7185660645311 L271.7806400721748,446.7904638549703 M271.7806400721748,446.7904638549703 L270.78670112856156,439.71631780468874 M270.78670112856156,439.71631780468874 L273.2399692876936,432.6756976539463 M273.2399692876936,432.6756976539463 L279.0631829845001,425.8456896684641 M279.0631829845001,425.8456896684641 L288.09558885820326,419.3965767996569 M288.09558885820326,419.3965767996569 L300.09841165732183,413.4877559946543 M300.09841165732183,413.4877559946543 L314.7619761745335,408.26408599287254 M314.7619761745335,408.26408599287254 L331.7139246855306,403.8527053267829 M331.7139246855306,403.8527053267829 L350.52890929400326,400.3603036098468 M308.0569598901613,385.2156788287464 L294.2140169303522,379.8473743048839 M294.2140169303522,379.8473743048839 L283.2638596067426,373.83657292963005 M283.2638596067426,373.83657292963005 L275.4758470911308,367.33978924344666 M275.4758470911308,367.33978924344666 L271.03532527416036,360.52486077583615 M271.03532527416036,360.52486077583615 L270.040270607726,353.5663217712721 M270.040270607726,353.5663217712721 L272.50022683407053,346.6408085445716 M272.50022683407053,346.6408085445716 L278.3376944042317,339.9225097242868 M278.3376944042317,339.9225097242868 L287.39149914069026,333.57891739748624 M287.39149914069026,333.57891739748624 L299.4222788485823,327.7668119586653 M299.4222788485823,327.7668119586653 L314.1196246355529,322.6286707490453 M314.1196246355529,322.6286707490453 L331.11031890413267,318.2895394346675 M331.11031890413267,318.2895394346675 L349.9680501514161,314.85434934904197 M350.52890929400326,400.3603036098468 L529.9597293922741,459.46066275200724 M349.9680501514161,314.85434934904197 L529.8001211672479,372.9881211050178" stroke="black"  stroke-width="4"  fill="red"/></svg>