<svg viewBox="0 0 800 800" xmlns="http://www.w3.org/2000/svg"><path d="M400.00000000000006,268.69507464249324 L400.00000000000006,6.08619601470815 M-54.8522006076268,531.0126511309243 L-55.105036739148545,268.2576356600223 M400.00000000000006,268.69507464249324 L-54.8522006076268,531.0126511309243 M400.00000000000006,6.08619601470815 L-55.105036739148545,268.2576356600223 M854.8522006076269,531.0126511309243 L855.1050367391485,268.2576356600224 M854.8522006076269,531.0126511309243 L400.00000000000006,268.69507464249324 M855.1050367391485,268.2576356600224 L400.00000000000006,6.08619601470815 M400.00000000000006,793.9138039852918 L400.00000000000006,531.0126511309243 M-54.8522006076268,531.0126511309243 L400.00000000000006,793.9138039852918 M-55.105036739148545,268.2576356600223 L400.00000000000006,531.0126511309243 M400.00000000000006,793.9138039852918 L854.8522006076269,531.0126511309243 M400.00000000000006,531.0126511309243 L855.1050367391485,268.2576356600224 M400.00000000000006,399.56207470374056 L172.44748163042576,268.2576356600223 M627.5525183695743,268.2576356600223 L400.00000000000006,399.56207470374056 M400.00000000000006,137.0990904374637 L627.5525183695743,268.2576356600223 M172.44748163042576,268.2576356600223 L400.00000000000006,137.0990904374637 M172.52334932937094,425.9456867316905 L400.00000000000006,557.2939962233379 M400.00000000000006,557.2939962233379 L400.00000000000006,399.56207470374056 M172.52334932937094,425.9456867316905 L172.44748163042576,268.2576356600223 M400.00000000000006,557.2939962233379 L627.4766506706292,425.9456867316905 M627.4766506706292,425.9456867316905 L627.5525183695743,268.2576356600223 M627.4766506706292,425.9456867316905 L400.00000000000006,294.74327117483324 M400.00000000000006,294.74327117483324 L400.00000000000006,137.0990904374637 M400.00000000000006,294.74327117483324 L172.52334932937094,425.9456867316905" stroke="black"  stroke-width="4"  fill="red"/></svg>