<svg viewBox="0 0 800 800" xmlns="http://www.w3.org/2000/svg"><path d="M400.2193727939131,171.93532020969838 L4.909598162340558,399.91421512328986 M795.0904018376593,399.91421512328975 L399.78013889714094,628.4005755792599 M400.2193727939131,171.93532020969838 L405.92474622697443,120.6925848104056 M405.92474622697443,120.6925848104056 L422.76564898894196,79.03013788789195 M422.76564898894196,79.03013788789195 L449.76965317264427,49.37243595435746 M449.76965317264427,49.37243595435746 L485.3731958478989,33.4494398205311 M485.3731958478989,33.4494398205311 L527.5110414527942,32.19453659291452 M527.5110414527942,32.19453659291452 L573.7354490645521,45.68855876562975 M573.7354490645521,45.68855876562975 L621.3581435782559,73.15319029874024 M621.3581435782559,73.15319029874024 L667.6069740080063,112.99488590272085 M667.6069740080063,112.99488590272085 L709.7880618148076,162.89689033517823 M709.7880618148076,162.89689033517823 L745.4437468862584,219.95412939615022 M745.4437468862584,219.95412939615022 L772.496837041386,280.8432446513006 M772.496837041386,280.8432446513006 L789.3725194930889,342.0173847884139 M789.3725194930889,342.0173847884139 L795.0904018376593,399.91421512328975 M4.909598162340558,399.91421512328986 L10.562334477496961,348.64851804223844 M10.562334477496961,348.64851804223844 L27.35361940784395,306.9791456483654 M27.35361940784395,306.9791456483654 L54.31391524605817,277.33096834466033 M54.31391524605817,277.33096834466033 L89.8822085717311,261.4334095964591 M89.8822085717311,261.4334095964591 L131.99532229685127,260.2183953364557 M131.99532229685127,260.2183953364557 L178.2069611019712,273.7644541380063 M178.2069611019712,273.7644541380063 L225.82959662671053,301.2902538485231 M225.82959662671053,301.2902538485231 L272.0910813408228,341.19869432106134 M272.0910813408228,341.19869432106134 L314.2967966619964,391.16913330958175 M314.2967966619964,391.16913330958175 L349.9876429613276,448.2925051718962 M349.9876429613276,448.2925051718962 L377.0843746970533,509.24159085978727 M377.0843746970533,509.24159085978727 L394.00963341968225,570.4660376083012 M394.00963341968225,570.4660376083012 L399.78013889714094,628.4005755792599 M795.0904018376593,399.91421512328975 L789.3214906630974,451.1646189092186 M789.3214906630974,451.1646189092186 L772.4064780577069,492.7894547974503 M772.4064780577069,492.7894547974503 L745.3347696318156,522.3728825502704 M745.3347696318156,522.3728825502704 L709.6854385036638,538.2019566501629 M709.6854385036638,538.2019566501629 L667.5342098082276,539.3648063610269 M667.5342098082276,539.3648063610269 L621.3318903884369,525.8016875599661 M621.3318903884369,525.8016875599661 L573.7616952231497,498.3067454775821 M573.7616952231497,498.3067454775821 L527.5837483361627,458.4804692045941 M527.5837483361627,458.4804692045941 L485.47568969255815,408.6360816385534 M485.47568969255815,408.6360816385534 L449.8784493096241,351.6654576010276 M449.8784493096241,351.6654576010276 L422.8558303498416,290.87211309060115 M422.8558303498416,290.87211309060115 L405.97566507337007,229.7809594771474 M405.97566507337007,229.7809594771474 L400.2193727939131,171.93532020969838 M399.78013889714094,628.4005755792599 L394.06383706330405,679.6738924982936 M394.06383706330405,679.6738924982936 L377.1983649429606,721.3055195526217 M377.1983649429606,721.3055195526217 L350.1702556657945,750.8792333815703 M350.1702556657945,750.8792333815703 L314.5560578558568,766.6826691778998 M314.5560578558568,766.6826691778998 L272.42946475555493,767.8054634070855 M272.42946475555493,767.8054634070855 L226.2398596621797,754.1902140133851 M226.2398596621797,754.1902140133851 L178.66972329083947,726.6341038660262 M178.66972329083947,726.6341038660262 L132.47917625439896,686.7411768874681 M132.47917625439896,686.7411768874681 L90.3465861596274,636.8285214073901 M90.3465861596274,636.8285214073901 L54.71430053332023,579.7919655138292 M54.71430053332023,579.7919655138292 L27.648149328065927,518.9388397850623 M27.648149328065927,518.9388397850623 L10.718485419065132,457.7975136969478 M10.718485419065132,457.7975136969478 L4.909598162340558,399.91421512328986" stroke="black"  stroke-width="4"  fill="red"/></svg>